<?xml version="1.0" encoding="utf-8"?>
<!-- Generator: Adobe Illustrator 19.0.0, SVG Export Plug-In . SVG Version: 6.00 Build 0)  -->
<svg version="1.1" id="Layer_1" xmlns="http://www.w3.org/2000/svg" xmlns:xlink="http://www.w3.org/1999/xlink" x="0px" y="0px"
	 viewBox="0 0 80.5 80.8" style="enable-background:new 0 0 80.5 80.8;" xml:space="preserve">
<style type="text/css">
	.st0{opacity:0.1;}
	.st1{fill:none;}
	.st2{fill:#00BDFD;}
</style>
<g id="XMLID_1_" class="st0">
	<path id="XMLID_4_" class="st1" d="M65.6,36.1c0.2,0.1,0.4,0.2,0.5,0l4-3.9c0.2-0.1,0.2-0.4,0-0.5l-3.9-3.9
		c-0.1-0.1-0.2-0.1-0.3-0.1s-0.2,0-0.3,0.1l-4,3.9c-0.2,0.1-0.2,0.4,0,0.5L65.6,36.1z"/>
	<path id="XMLID_24_" class="st1" d="M34.4,77l42.6-42.2c0.4-0.4,0.7-1,0.7-1.6c0-0.6-0.2-1.2-0.7-1.6L64.4,18.9
		c-0.1,0.1-0.1,0.2-0.2,0.3L29.8,53.3c-0.7,0.7-1.9,0.7-2.6,0c-0.7-0.7-0.7-1.9,0-2.6l34.3-34.1c0.1-0.1,0.2-0.2,0.3-0.2L49.3,3.7
		c-0.4-0.4-1-0.7-1.6-0.7c0,0,0,0,0,0c-0.6,0-1.2,0.3-1.6,0.7L3.5,46c-0.4,0.4-0.7,1-0.7,1.6c0,0.6,0.2,1.2,0.7,1.6L8.3,54
		c0.1-0.1,0.1-0.2,0.2-0.3l34.3-34.1c0.7-0.7,1.9-0.7,2.6,0c0.7,0.7,0.7,1.9,0,2.6L11.1,56.3c-0.1,0.1-0.2,0.2-0.3,0.2L31.2,77
		c0,0,0.1,0,0.2,0h2.9C34.3,77,34.3,77,34.4,77z M48,14.5l0.6-0.6c0.7-0.7,1.9-0.7,2.6,0c0.7,0.7,0.7,1.9,0,2.6L50.6,17
		c-0.7,0.7-1.9,0.7-2.6,0C47.3,16.3,47.3,15.2,48,14.5z M24.4,58.7l-0.6,0.6c-0.7,0.7-1.9,0.7-2.6,0c-0.7-0.7-0.7-1.9,0-2.6l0.6-0.6
		c0.7-0.7,1.9-0.7,2.6,0C25.1,56.9,25.1,58,24.4,58.7z M60.1,30l4-3.9c1-1,2.7-1,3.8,0l3.9,3.9c0.5,0.5,0.8,1.2,0.8,1.9
		c0,0.7-0.3,1.4-0.8,1.9v0l-4,3.9c-0.5,0.5-1.2,0.8-1.9,0.8c-0.7,0-1.4-0.3-1.9-0.8l-3.9-3.9C59,32.7,59.1,31,60.1,30z M45.2,55.9
		c0.7-0.7,1.9-0.7,2.6,0c0.7,0.7,0.7,1.9,0,2.6l-1.6,1.6c-0.7,0.7-1.9,0.7-2.6,0c-0.7-0.7-0.7-1.9,0-2.6L45.2,55.9z M29.3,66.3
		c-0.7-0.7-0.7-1.9,0-2.6l11-11c0.7-0.7,1.9-0.7,2.6,0h0c0.7,0.7,0.7,1.9,0,2.6l-11,11C31.2,67.1,30,67,29.3,66.3z M33.3,67.7
		l6.4-6.4c0.7-0.7,1.9-0.7,2.6,0c0.7,0.7,0.7,1.9,0,2.6l-6.4,6.4c-0.7,0.7-1.9,0.7-2.6,0C32.6,69.6,32.6,68.5,33.3,67.7z"/>
	<path id="XMLID_34_" class="st2" d="M80.5,33.2c0-1.4-0.5-2.7-1.5-3.6l-27.7-28c-1-1-2.2-1.6-3.6-1.6c0,0,0,0,0,0
		c-1.4,0-2.6,0.6-3.6,1.6L1.5,43.9c-1,1-1.5,2.3-1.5,3.6c0,1.4,0.5,2.6,1.5,3.5L27.3,77h4.1c-0.1,0-0.1,0-0.2,0L10.8,56.5
		c-0.7,0.5-1.6,0.4-2.3-0.2c-0.6-0.6-0.7-1.6-0.2-2.3l-4.7-4.8c-0.4-0.4-0.7-1-0.7-1.6c0-0.6,0.2-1.2,0.7-1.6L46.1,3.7
		c0.4-0.4,1-0.7,1.6-0.7c0,0,0,0,0,0c0.6,0,1.2,0.3,1.6,0.7l12.6,12.7c0.7-0.5,1.7-0.4,2.3,0.3c0.6,0.6,0.7,1.6,0.2,2.3L77,31.6
		c0.4,0.4,0.7,1,0.7,1.6c0,0.6-0.2,1.2-0.7,1.6L34.4,77c0,0-0.1,0-0.1,0h4.1L79,36.7C79.9,35.8,80.5,34.6,80.5,33.2z"/>
	<path id="XMLID_40_" class="st2" d="M64,37.7c0.5,0.5,1.2,0.8,1.9,0.8c0.7,0,1.4-0.3,1.9-0.8l4-3.9v0c0.5-0.5,0.8-1.2,0.8-1.9
		c0-0.7-0.3-1.4-0.8-1.9L67.8,26c-1-1-2.7-1.1-3.8,0l-4,3.9c-1,1-1.1,2.7,0,3.8L64,37.7z M61.7,31.6l4-3.9c0.1-0.1,0.2-0.1,0.3-0.1
		s0.2,0,0.3,0.1l3.9,3.9c0.1,0.1,0.1,0.4,0,0.5l-4,3.9c-0.2,0.1-0.4,0.1-0.5,0l-3.9-3.9C61.6,32,61.6,31.7,61.7,31.6z"/>
	<path id="XMLID_42_" class="st2" d="M45.4,22.2c0.7-0.7,0.7-1.9,0-2.6c-0.7-0.7-1.9-0.7-2.6,0L8.5,53.7c-0.1,0.1-0.2,0.2-0.2,0.3
		l2.5,2.5c0.1-0.1,0.2-0.1,0.3-0.2L45.4,22.2z"/>
	<path id="XMLID_43_" class="st2" d="M8.5,56.3c0.6,0.6,1.6,0.7,2.3,0.2L8.3,54C7.8,54.7,7.9,55.6,8.5,56.3z"/>
	<path id="XMLID_44_" class="st2" d="M42.9,52.8L42.9,52.8c-0.7-0.7-1.9-0.7-2.6,0l-11,11c-0.7,0.7-0.7,1.9,0,2.6
		c0.7,0.7,1.9,0.7,2.6,0l11-11C43.6,54.7,43.6,53.5,42.9,52.8z"/>
	<path id="XMLID_46_" class="st2" d="M35.8,70.3l6.4-6.4c0.7-0.7,0.7-1.9,0-2.6c-0.7-0.7-1.9-0.7-2.6,0l-6.4,6.4
		c-0.7,0.7-0.7,1.9,0,2.6C34,71,35.1,71,35.8,70.3z"/>
	<path id="XMLID_47_" class="st2" d="M43.6,60.1c0.7,0.7,1.9,0.7,2.6,0l1.6-1.6c0.7-0.7,0.7-1.9,0-2.6c-0.7-0.7-1.9-0.7-2.6,0
		l-1.6,1.6C42.9,58.2,42.9,59.3,43.6,60.1z"/>
	<path id="XMLID_48_" class="st2" d="M27.2,50.8c-0.7,0.7-0.7,1.9,0,2.6c0.7,0.7,1.9,0.7,2.6,0l34.3-34.1c0.1-0.1,0.2-0.2,0.2-0.3
		l-2.5-2.5c-0.1,0.1-0.2,0.1-0.3,0.2L27.2,50.8z"/>
	<path id="XMLID_49_" class="st2" d="M64.1,16.7c-0.6-0.6-1.6-0.7-2.3-0.2l2.5,2.5C64.8,18.2,64.8,17.3,64.1,16.7z"/>
	<path id="XMLID_50_" class="st2" d="M50.6,17l0.6-0.6c0.7-0.7,0.7-1.9,0-2.6c-0.7-0.7-1.9-0.7-2.6,0L48,14.5
		c-0.7,0.7-0.7,1.9,0,2.6C48.7,17.7,49.9,17.7,50.6,17z"/>
	<path id="XMLID_51_" class="st2" d="M21.8,56.1l-0.6,0.6c-0.7,0.7-0.7,1.9,0,2.6c0.7,0.7,1.9,0.7,2.6,0l0.6-0.6
		c0.7-0.7,0.7-1.9,0-2.6C23.7,55.4,22.5,55.4,21.8,56.1z"/>
	<path id="XMLID_52_" class="st2" d="M32.8,81C32.8,81,32.8,81,32.8,81c-1.4,0-2.7-0.8-3.6-1.8L27.3,77h-7.1c-1,0-1.8,1-1.8,2
		c0,1,0.8,2,1.8,2h31.9c1,0,1.8-1,1.8-2c0-1-0.8-2-1.8-2H38.3l-1.9,2.2C35.4,80.2,34.1,81,32.8,81z"/>
	<path id="XMLID_53_" class="st2" d="M34.2,77h-2.9c0.4,1,0.9,0.5,1.4,0.5C33.3,77.6,33.8,78,34.2,77z"/>
	<path id="XMLID_54_" class="st2" d="M32.8,77.5c-0.5,0-1,0.5-1.4-0.5h-4.1l1.9,2.2c1,1,2.2,1.8,3.6,1.8c0,0,0,0,0,0
		c1.4,0,2.6-0.8,3.6-1.8l1.9-2.2h-4.1C33.8,78,33.3,77.6,32.8,77.5z"/>
</g>
</svg>
