<?xml version="1.0" encoding="utf-8"?>
<!-- Generator: Adobe Illustrator 19.0.0, SVG Export Plug-In . SVG Version: 6.00 Build 0)  -->
<svg version="1.1" id="Layer_1" xmlns="http://www.w3.org/2000/svg" xmlns:xlink="http://www.w3.org/1999/xlink" x="0px" y="0px"
	 viewBox="0 0 59.8 57.6" style="enable-background:new 0 0 59.8 57.6;" xml:space="preserve">
<style type="text/css">
	.st0{opacity:0.4;}
	.st1{fill:#00BDFD;}
	.st2{fill:none;}
</style>
<g id="XMLID_2_" class="st0">
	<path id="XMLID_19_" class="st1" d="M27.8,45.3c0,0,1.4-10.8,12.2-10.8c4.4,0,8.6,2.9,9.6,5.2c0.7,0,9.6-0.3,10.3,9.9
		c0,3.7-2.5,6.6-4.9,8c-3.1,0-29.6,0-29.6,0s-5.4-3.5-1.8-9.5C24.7,46.4,26.4,45.5,27.8,45.3z"/>
	<path id="XMLID_18_" class="st1" d="M3.1,1.7c0,0.4,0.4,0.8,0.8,0.8h47.8c0.4,0,0.8-0.4,0.8-0.8V0.4c0-0.1,0-0.3-0.1-0.4H3.2
		C3.1,0.2,3.1,0.3,3.1,0.4V1.7z"/>
	<path id="XMLID_14_" class="st1" d="M59.9,16.1v-6c0-2.8-2.3-5-5-5H0.1v16.1h54.7C57.6,21.2,59.9,18.9,59.9,16.1z M3.7,15.7
		c-1.4,0-2.6-1.2-2.6-2.6s1.2-2.6,2.6-2.6s2.6,1.2,2.6,2.6S5.2,15.7,3.7,15.7z M53.5,15.7H31.6c-0.7,0-1.2-0.5-1.2-1.2
		s0.5-1.2,1.2-1.2h21.9c0.7,0,1.2,0.5,1.2,1.2S54.2,15.7,53.5,15.7z"/>
	<path id="XMLID_11_" class="st1" d="M39.8,32c3.7,0.3,6.9,0.4,11.3,5.3c0.7,0.1,2.3,0.2,6.2,1.8c1.6-0.9,2.6-2.5,2.6-4.4v-6
		c0-2.8-2.3-5-5-5H0.1v16.1h26.3C27.8,37.6,32.5,31.4,39.8,32z M3.7,34.5c-1.4,0-2.6-1.2-2.6-2.6s1.2-2.6,2.6-2.6s2.6,1.2,2.6,2.6
		S5.2,34.5,3.7,34.5z"/>
	<path id="XMLID_8_" class="st1" d="M22,42.5c-1.9-0.1-21.9,0-21.9,0v15.1h21.2c0,0,0.2-0.5-0.4-1.5s-3-6.7,2.5-11.6
		C23.5,44.1,23.8,42.7,22,42.5z M3.7,52.7c-1.4,0-2.6-1.2-2.6-2.6c0-1.4,1.2-2.6,2.6-2.6s2.6,1.2,2.6,2.6
		C6.4,51.5,5.2,52.7,3.7,52.7z"/>
	<rect id="XMLID_3_" x="0.1" y="0" class="st2" width="59.8" height="57.6"/>
</g>
</svg>
