<?xml version="1.0" standalone="no"?>
<!DOCTYPE svg PUBLIC "-//W3C//DTD SVG 20010904//EN"
 "http://www.w3.org/TR/2001/REC-SVG-20010904/DTD/svg10.dtd">
<svg version="1.0" xmlns="http://www.w3.org/2000/svg"
 width="260.000000pt" height="260.000000pt" viewBox="0 0 260.000000 260.000000"
 preserveAspectRatio="xMidYMid meet">
<metadata>
Created by potrace 1.11, written by Peter Selinger 2001-2013
</metadata>
<g transform="translate(0.000000,260.000000) scale(0.100000,-0.100000)"
fill="#000000" stroke="none">
<path d="M2277 2200 c-169 -75 -310 -140 -313 -143 -3 -3 3 -10 14 -16 11 -6
51 -32 90 -59 l70 -48 -85 -120 c-47 -65 -86 -120 -87 -121 0 -1 -21 2 -46 7
-109 20 -562 33 -732 20 l-67 -5 211 -398 c116 -219 212 -396 214 -395 2 2 4
110 6 241 3 229 4 236 23 236 11 0 48 1 82 1 247 1 324 -99 324 -415 1 -213
-69 -326 -219 -356 -38 -7 -61 -16 -59 -23 8 -18 140 -251 158 -277 l16 -23
84 23 c225 62 363 191 413 387 47 188 55 414 17 549 -27 96 -68 183 -119 249
l-38 50 69 103 c38 57 74 103 80 103 6 0 53 -27 105 -60 52 -34 96 -59 98 -57
3 2 3 157 2 344 l-3 341 -308 -138z"/>
<path d="M25 1721 c-3 -2 -5 -321 -5 -708 l0 -703 289 0 289 0 122 248 c67
136 138 280 157 320 29 58 38 70 49 61 8 -6 14 -15 14 -19 0 -7 57 -127 229
-483 l62 -127 219 0 c121 0 220 2 220 5 0 5 -64 129 -120 230 -15 28 -48 88
-72 135 -25 47 -75 140 -112 208 -36 68 -66 125 -66 127 0 2 -15 30 -33 62
-19 32 -62 112 -97 178 -34 66 -66 125 -70 130 -6 9 -126 234 -158 297 -25 50
-22 53 -107 -103 -122 -227 -371 -667 -374 -663 -2 2 -4 185 -5 406 l-1 403
-213 1 c-117 0 -215 -2 -217 -5z"/>
</g>
</svg>
